<?xml version="1.0" encoding="UTF-8"?>
<svg id="Layer_1" data-name="Layer 1" xmlns="http://www.w3.org/2000/svg" version="1.1" viewBox="0 0 2461 543">
  <defs>
    <style>
      .cls-1 {
        fill: #fff;
        stroke-width: 0px;
      }
    </style>
  </defs>
  <g>
    <path class="cls-1" d="M97.4,31.7h325.5c42.8,0,77.5,34.7,77.5,77.5h0c0,42.8-34.7,77.5-77.5,77.5H97.4c-41.5,0-75.1-33.7-75.1-75.1v-4.7c0-41.5,33.7-75.1,75.1-75.1Z"/>
    <path class="cls-1" d="M97.1,194h222.9c42.8,0,77.5,34.7,77.5,77.5h0c0,42.8-34.7,77.5-77.5,77.5H97.1c-41.3,0-74.8-33.5-74.8-74.8v-5.4c0-41.3,33.5-74.8,74.8-74.8Z"/>
    <rect class="cls-1" x="22.3" y="356.3" width="154" height="154.9" rx="77" ry="77"/>
  </g>
  <g>
    <path class="cls-1" d="M741.6,324.5v120.1h-60.6V125.8h219.9v57.4h-159.4v84.5h144v56.8h-144Z"/>
    <path class="cls-1" d="M920.6,319.2c0-82.3,51-130.7,128-130.7s127.5,48.3,127.5,130.7-48.3,132.3-127.5,132.3-128-50.5-128-132.3ZM978,318.6c0,48.3,25,80.2,70.1,80.2s71.2-31.9,71.2-80.2-26.6-78.1-70.7-78.1-70.7,30.3-70.7,78.1Z"/>
    <path class="cls-1" d="M1316.9,240.5c-40.9,0-69.6,25.5-69.6,79.2s28.2,79.2,70.7,79.2,56.8-26.6,64.8-62.2l54.7,11.2c-10.1,63.7-46.2,103.6-118.5,103.6s-130.2-46.2-130.2-131.2,52.6-131.8,128.6-131.8,109.4,37.2,119.5,101.5l-55.2,9c-7.4-35.1-26-58.4-64.8-58.4Z"/>
    <path class="cls-1" d="M1629.3,376h-.5c-11.2,53.7-43,75.4-85,75.4-60,0-82.9-39.8-82.9-93.5v-163.1h57.4v147.7c0,30.3,13.3,56.8,52.1,56.8s59-21.3,59-56.8v-147.7h57.4v249.7h-57.4v-68.5Z"/>
    <path class="cls-1" d="M1708.4,365.4l53.7-10.6c8,31.3,23.9,52.6,63.7,52.6s45.2-11.7,45.7-31.3c0-18.1-12.8-27.6-62.7-36.7-67.5-13.3-91.4-36.7-91.4-76.5s32.9-74.4,98.3-74.4,96.2,29.2,106.8,77l-54.7,12.2c-7.4-32.9-22.3-46.7-52.1-46.7s-41.4,11.2-41.4,29.2,10.1,29.2,60.6,37.7c69.6,12.7,93,38.2,93,76.5s-32.4,77-103.1,77-107.3-37.2-116.3-86.1Z"/>
    <path class="cls-1" d="M2232.2,365.4h-137.1l-29.7,79.2h-62.7l127.5-318.8h69.1l127.5,318.8h-65.3l-29.2-79.2ZM2114.3,316h99.3l-13.8-37.2c-11.7-30.3-23.9-63.2-34-93.5h-3.7c-10.1,30.3-22.3,63.2-34,93.5l-13.8,37.2Z"/>
    <path class="cls-1" d="M2339,444.5V118.4h57.4v326.1h-57.4Z"/>
  </g>
</svg>
